<svg width="84" height="60" viewBox="0 0 84 60" fill="none" xmlns="http://www.w3.org/2000/svg">
<g clip-path="url(#clip0_3_180)">
<path d="M22.794 21.75C24.118 21.75 25.362 22.266 26.298 23.201C27.2262 24.1309 27.7475 25.3911 27.7475 26.705C27.7475 28.0189 27.2262 29.2791 26.298 30.209L18 38.508L9.70102 30.209C8.77313 29.2791 8.25201 28.0191 8.25201 26.7055C8.25201 25.3918 8.77313 24.1319 9.70102 23.202C10.1601 22.7403 10.7061 22.3742 11.3076 22.125C11.909 21.8757 12.554 21.7483 13.205 21.75C14.529 21.75 15.773 22.266 16.709 23.201L17.469 23.961L18 24.492L18.53 23.961L19.29 23.201C19.7492 22.7396 20.2953 22.3738 20.8968 22.1248C21.4982 21.8757 22.1431 21.7483 22.794 21.75Z" stroke="#111111" stroke-width="1.5"/>
</g>
<g clip-path="url(#clip1_3_180)">
<path d="M62.25 26.25V24C62.25 23.4033 62.4871 22.831 62.909 22.409C63.331 21.9871 63.9033 21.75 64.5 21.75H67.5C68.0967 21.75 68.669 21.9871 69.091 22.409C69.5129 22.831 69.75 23.4033 69.75 24C69.75 24.5967 69.5129 25.169 69.091 25.591C68.669 26.0129 68.0967 26.25 67.5 26.25H57.75V34.5C57.75 35.4946 58.1451 36.4484 58.8483 37.1517C59.5516 37.8549 60.5054 38.25 61.5 38.25H70.5C71.4946 38.25 72.4484 37.8549 73.1517 37.1517C73.8549 36.4484 74.25 35.4946 74.25 34.5V26.25H71.5" stroke="#111111" stroke-width="1.5"/>
</g>
<defs>
<clipPath id="clip0_3_180">
<rect width="24" height="24" fill="white" transform="translate(6 18)"/>
</clipPath>
<clipPath id="clip1_3_180">
<rect width="24" height="24" fill="white" transform="translate(54 18)"/>
</clipPath>
</defs>
</svg>
