<svg width="180" height="40" viewBox="0 0 180 40" fill="none" xmlns="http://www.w3.org/2000/svg">
<rect width="180" height="40" rx="20" fill="#F5F5F5"/>
<path d="M54.9214 22.3047C54.9214 22.0557 54.8823 21.8359 54.8042 21.6455C54.731 21.4502 54.5991 21.2744 54.4087 21.1182C54.2231 20.9619 53.9644 20.813 53.6323 20.6714C53.3052 20.5298 52.8901 20.3857 52.3872 20.2393C51.8599 20.083 51.3838 19.9097 50.959 19.7192C50.5342 19.5239 50.1704 19.3018 49.8677 19.0527C49.5649 18.8037 49.333 18.5181 49.1719 18.1958C49.0107 17.8735 48.9302 17.5049 48.9302 17.0898C48.9302 16.6748 49.0156 16.2915 49.1865 15.9399C49.3574 15.5884 49.6016 15.2832 49.9189 15.0244C50.2412 14.7607 50.6245 14.5557 51.0688 14.4092C51.5132 14.2627 52.0088 14.1895 52.5557 14.1895C53.3564 14.1895 54.0352 14.3433 54.5918 14.6509C55.1533 14.9536 55.5806 15.3516 55.8735 15.8447C56.1665 16.333 56.313 16.8555 56.313 17.4121H54.9067C54.9067 17.0117 54.8213 16.6577 54.6504 16.3501C54.4795 16.0376 54.2207 15.7935 53.874 15.6177C53.5273 15.437 53.0879 15.3467 52.5557 15.3467C52.0527 15.3467 51.6377 15.4224 51.3105 15.5737C50.9834 15.7251 50.7393 15.9302 50.5781 16.189C50.4219 16.4478 50.3438 16.7432 50.3438 17.0752C50.3438 17.2998 50.3901 17.5049 50.4829 17.6904C50.5806 17.8711 50.7295 18.0396 50.9297 18.1958C51.1348 18.3521 51.3936 18.4961 51.7061 18.6279C52.0234 18.7598 52.4019 18.8867 52.8413 19.0088C53.4468 19.1797 53.9692 19.3701 54.4087 19.5801C54.8481 19.79 55.2095 20.0269 55.4927 20.2905C55.7808 20.5493 55.9932 20.8447 56.1299 21.1768C56.2715 21.5039 56.3423 21.875 56.3423 22.29C56.3423 22.7246 56.2544 23.1177 56.0786 23.4692C55.9028 23.8208 55.6514 24.1211 55.3242 24.3701C54.9971 24.6191 54.604 24.812 54.145 24.9487C53.6909 25.0806 53.1831 25.1465 52.6216 25.1465C52.1284 25.1465 51.6426 25.0781 51.1641 24.9414C50.6904 24.8047 50.2583 24.5996 49.8677 24.3262C49.4819 24.0527 49.1719 23.7158 48.9375 23.3154C48.708 22.9102 48.5933 22.4414 48.5933 21.9092H49.9995C49.9995 22.2754 50.0703 22.5903 50.2119 22.854C50.3535 23.1128 50.5464 23.3276 50.7905 23.4985C51.0396 23.6694 51.3203 23.7964 51.6328 23.8794C51.9502 23.9575 52.2798 23.9966 52.6216 23.9966C53.1147 23.9966 53.5322 23.9282 53.874 23.7915C54.2158 23.6548 54.4746 23.4595 54.6504 23.2056C54.8311 22.9517 54.9214 22.6514 54.9214 22.3047ZM61.2275 25.1465C60.6758 25.1465 60.1753 25.0537 59.7261 24.8682C59.2817 24.6777 58.8984 24.4116 58.5762 24.0698C58.2588 23.728 58.0146 23.3228 57.8438 22.854C57.6729 22.3853 57.5874 21.8726 57.5874 21.3159V21.0083C57.5874 20.3638 57.6826 19.79 57.873 19.2871C58.0635 18.7793 58.3223 18.3496 58.6494 17.998C58.9766 17.6465 59.3477 17.3804 59.7627 17.1997C60.1777 17.019 60.6074 16.9287 61.0518 16.9287C61.6182 16.9287 62.1064 17.0264 62.5166 17.2217C62.9316 17.417 63.271 17.6904 63.5347 18.042C63.7983 18.3887 63.9937 18.7988 64.1206 19.2725C64.2476 19.7412 64.311 20.2539 64.311 20.8105V21.4185H58.3931V20.3125H62.9561V20.21C62.9365 19.8584 62.8633 19.5166 62.7363 19.1846C62.6143 18.8525 62.4189 18.5791 62.1504 18.3643C61.8818 18.1494 61.5156 18.042 61.0518 18.042C60.7441 18.042 60.4609 18.1079 60.2021 18.2397C59.9434 18.3667 59.7212 18.5571 59.5356 18.811C59.3501 19.0649 59.2061 19.375 59.1035 19.7412C59.001 20.1074 58.9497 20.5298 58.9497 21.0083V21.3159C58.9497 21.6919 59.001 22.0459 59.1035 22.3779C59.2109 22.7051 59.3647 22.9932 59.5649 23.2422C59.77 23.4912 60.0166 23.6865 60.3047 23.8281C60.5977 23.9697 60.9297 24.0405 61.3008 24.0405C61.7793 24.0405 62.1846 23.9429 62.5166 23.7476C62.8486 23.5522 63.1392 23.291 63.3882 22.9639L64.2085 23.6157C64.0376 23.8745 63.8203 24.1211 63.5566 24.3555C63.293 24.5898 62.9683 24.7803 62.5825 24.9268C62.2017 25.0732 61.75 25.1465 61.2275 25.1465ZM70.5659 23.645V19.5654C70.5659 19.2529 70.5024 18.9819 70.3755 18.7524C70.2534 18.5181 70.0679 18.3374 69.8188 18.2104C69.5698 18.0835 69.2622 18.02 68.896 18.02C68.5542 18.02 68.2539 18.0786 67.9951 18.1958C67.7412 18.313 67.541 18.4668 67.3945 18.6572C67.2529 18.8477 67.1821 19.0527 67.1821 19.2725H65.8271C65.8271 18.9893 65.9004 18.7085 66.0469 18.4302C66.1934 18.1519 66.4033 17.9004 66.6768 17.6758C66.9551 17.4463 67.2871 17.2656 67.6729 17.1338C68.0635 16.9971 68.498 16.9287 68.9766 16.9287C69.5527 16.9287 70.0605 17.0264 70.5 17.2217C70.9443 17.417 71.291 17.7124 71.54 18.1079C71.7939 18.4985 71.9209 18.9893 71.9209 19.5801V23.2715C71.9209 23.5352 71.9429 23.8159 71.9868 24.1138C72.0356 24.4116 72.1064 24.668 72.1992 24.8828V25H70.7856C70.7173 24.8438 70.6636 24.6362 70.6245 24.3774C70.5854 24.1138 70.5659 23.8696 70.5659 23.645ZM70.8003 20.1953L70.8149 21.1475H69.4453C69.0596 21.1475 68.7153 21.1792 68.4126 21.2427C68.1099 21.3013 67.856 21.3916 67.6509 21.5137C67.4458 21.6357 67.2896 21.7896 67.1821 21.9751C67.0747 22.1558 67.021 22.3682 67.021 22.6123C67.021 22.8613 67.0771 23.0884 67.1895 23.2935C67.3018 23.4985 67.4702 23.6621 67.6948 23.7842C67.9243 23.9014 68.2051 23.96 68.5371 23.96C68.9521 23.96 69.3184 23.8721 69.6357 23.6963C69.9531 23.5205 70.2046 23.3057 70.3901 23.0518C70.5806 22.7979 70.6831 22.5513 70.6978 22.312L71.2764 22.9639C71.2422 23.1689 71.1494 23.396 70.998 23.645C70.8467 23.894 70.644 24.1333 70.3901 24.3628C70.1411 24.5874 69.8433 24.7754 69.4966 24.9268C69.1548 25.0732 68.769 25.1465 68.3394 25.1465C67.8022 25.1465 67.3311 25.0415 66.9258 24.8315C66.5254 24.6216 66.2129 24.3408 65.9883 23.9893C65.7686 23.6328 65.6587 23.2349 65.6587 22.7954C65.6587 22.3706 65.7417 21.9971 65.9077 21.6748C66.0737 21.3477 66.313 21.0767 66.6255 20.8618C66.938 20.6421 67.314 20.4761 67.7534 20.3638C68.1929 20.2515 68.6836 20.1953 69.2256 20.1953H70.8003ZM75.4072 18.3203V25H74.0522V17.0752H75.3706L75.4072 18.3203ZM77.8828 17.0312L77.8755 18.291C77.7632 18.2666 77.6558 18.252 77.5532 18.2471C77.4556 18.2373 77.3433 18.2324 77.2163 18.2324C76.9038 18.2324 76.6279 18.2812 76.3887 18.3789C76.1494 18.4766 75.9468 18.6133 75.7808 18.7891C75.6147 18.9648 75.4829 19.1748 75.3853 19.4189C75.2925 19.6582 75.2314 19.9219 75.2021 20.21L74.8213 20.4297C74.8213 19.9512 74.8677 19.502 74.9604 19.082C75.0581 18.6621 75.207 18.291 75.4072 17.9688C75.6074 17.6416 75.8613 17.3877 76.1689 17.207C76.4814 17.0215 76.8525 16.9287 77.2822 16.9287C77.3799 16.9287 77.4922 16.9409 77.6191 16.9653C77.7461 16.9849 77.834 17.0068 77.8828 17.0312ZM82.1602 24.0332C82.4824 24.0332 82.7803 23.9673 83.0537 23.8354C83.3271 23.7036 83.5518 23.5229 83.7275 23.2935C83.9033 23.0591 84.0034 22.793 84.0278 22.4951H85.3169C85.2925 22.9639 85.1338 23.4009 84.8408 23.8062C84.5527 24.2065 84.1743 24.5312 83.7056 24.7803C83.2368 25.0244 82.7217 25.1465 82.1602 25.1465C81.5645 25.1465 81.0444 25.0415 80.6001 24.8315C80.1606 24.6216 79.7944 24.3335 79.5015 23.9673C79.2134 23.6011 78.9961 23.1812 78.8496 22.7075C78.708 22.229 78.6372 21.7236 78.6372 21.1914V20.8838C78.6372 20.3516 78.708 19.8486 78.8496 19.375C78.9961 18.8965 79.2134 18.4741 79.5015 18.1079C79.7944 17.7417 80.1606 17.4536 80.6001 17.2437C81.0444 17.0337 81.5645 16.9287 82.1602 16.9287C82.7803 16.9287 83.3223 17.0557 83.7861 17.3096C84.25 17.5586 84.6138 17.9004 84.8774 18.335C85.146 18.7646 85.2925 19.2529 85.3169 19.7998H84.0278C84.0034 19.4727 83.9106 19.1772 83.7495 18.9136C83.5933 18.6499 83.3784 18.4399 83.105 18.2837C82.8364 18.1226 82.5215 18.042 82.1602 18.042C81.7451 18.042 81.396 18.125 81.1128 18.291C80.8345 18.4521 80.6123 18.6719 80.4463 18.9502C80.2852 19.2236 80.168 19.5288 80.0947 19.8657C80.0264 20.1978 79.9922 20.5371 79.9922 20.8838V21.1914C79.9922 21.5381 80.0264 21.8799 80.0947 22.2168C80.1631 22.5537 80.2778 22.8589 80.439 23.1323C80.605 23.4058 80.8271 23.6255 81.1055 23.7915C81.3887 23.9526 81.7402 24.0332 82.1602 24.0332ZM88.1953 13.75V25H86.8403V13.75H88.1953ZM87.873 20.7373L87.3091 20.7153C87.314 20.1733 87.3945 19.6729 87.5508 19.2139C87.707 18.75 87.9268 18.3472 88.21 18.0054C88.4932 17.6636 88.8301 17.3999 89.2207 17.2144C89.6162 17.0239 90.0532 16.9287 90.5317 16.9287C90.9224 16.9287 91.2739 16.9824 91.5864 17.0898C91.8989 17.1924 92.165 17.3584 92.3848 17.5879C92.6094 17.8174 92.7803 18.1152 92.8975 18.4814C93.0146 18.8428 93.0732 19.2847 93.0732 19.8071V25H91.7109V19.7925C91.7109 19.3774 91.6499 19.0454 91.5278 18.7964C91.4058 18.5425 91.2275 18.3594 90.9932 18.2471C90.7588 18.1299 90.4707 18.0713 90.1289 18.0713C89.792 18.0713 89.4844 18.1421 89.2061 18.2837C88.9326 18.4253 88.6958 18.6206 88.4956 18.8696C88.3003 19.1187 88.1465 19.4043 88.0342 19.7266C87.9268 20.0439 87.873 20.3809 87.873 20.7373Z" fill="#CCCCCC"/>
<g clip-path="url(#clip0_3_172)">
<path d="M23.962 24.296C22.916 24.9224 21.7192 25.2521 20.5 25.25C19.6134 25.2512 18.7353 25.0772 17.9162 24.7379C17.0971 24.3986 16.3531 23.9008 15.727 23.273C15.0992 22.6469 14.6014 21.9029 14.2621 21.0838C13.9228 20.2647 13.7488 19.3866 13.75 18.5C13.75 16.636 14.505 14.949 15.727 13.727C16.3531 13.0992 17.0971 12.6014 17.9162 12.2621C18.7353 11.9228 19.6134 11.7488 20.5 11.75C22.364 11.75 24.051 12.505 25.273 13.727C25.9008 14.3531 26.3986 15.0971 26.7379 15.9162C27.0772 16.7353 27.2512 17.6134 27.25 18.5C27.2517 19.6974 26.9338 20.8736 26.329 21.907C25.812 22.789 25.895 23.895 26.618 24.618L30.471 28.471" stroke="#111111" stroke-width="1.5"/>
</g>
<defs>
<clipPath id="clip0_3_172">
<rect width="24" height="24" fill="white" transform="translate(10 8)"/>
</clipPath>
</defs>
</svg>
