<svg width="337" height="37" viewBox="0 0 337 37" fill="none" xmlns="http://www.w3.org/2000/svg">
<g clip-path="url(#clip0_3_277)">
<path d="M184 0C181.266 0 178.75 0.66625 176.45 2C174.182 3.30119 172.301 5.18215 171 7.45C169.666 9.75 169 12.2662 169 15C169 17.7337 169.666 20.25 171 22.55C172.301 24.8178 174.182 26.6988 176.45 28C178.75 29.3337 181.266 30 184 30C186.734 30 189.25 29.3337 191.55 28C193.818 26.6988 195.699 24.8178 197 22.55C198.334 20.25 199 17.7337 199 15C199 12.2662 198.334 9.75 197 7.45C195.699 5.18215 193.818 3.30119 191.55 2C189.25 0.66625 186.734 0 184 0ZM191.5 11.6V12.1C191.5 13.8338 191.084 15.5 190.25 17.1C189.428 18.6878 188.204 20.0325 186.7 21C185.034 22.0662 183.166 22.6 181.1 22.6C179.087 22.6151 177.111 22.0604 175.4 21H176.3C178.034 21 179.566 20.4663 180.9 19.4C180.1 19.4 179.384 19.15 178.75 18.65C178.116 18.15 177.666 17.5 177.4 16.7L178.1 16.9C178.566 16.9 178.9 16.8337 179.1 16.7C178.249 16.5759 177.479 16.1281 176.95 15.45C176.398 14.7915 176.097 13.9591 176.1 13.1C176.634 13.4337 177.2 13.6 177.8 13.6C176.666 12.9338 176.1 11.9 176.1 10.5C176.1 9.83375 176.266 9.2 176.6 8.6C177.6 9.8 178.75 10.7337 180.05 11.4C181.37 12.0718 182.82 12.4472 184.3 12.5C184.166 12.3 184.1 12 184.1 11.6C184.1 10.6 184.466 9.73375 185.2 9C185.934 8.26625 186.8 7.9 187.8 7.9C188.8 7.9 189.734 8.26625 190.6 9C191.2 8.86625 192 8.56625 193 8.1C192.734 9.03375 192.2 9.7 191.4 10.1H191.5C192.434 9.9 193.1 9.7 193.5 9.5C192.834 10.3663 192.166 11.0662 191.5 11.6Z" fill="#7E7E7E"/>
</g>
<g clip-path="url(#clip1_3_277)">
<path d="M230 0C227.266 0 224.75 0.66625 222.45 2C220.182 3.30119 218.301 5.18215 217 7.45C215.666 9.75 215 12.2662 215 15C215 17.7337 215.666 20.25 217 22.55C218.301 24.8178 220.182 26.6988 222.45 28C224.75 29.3337 227.266 30 230 30C232.734 30 235.25 29.3337 237.55 28C239.818 26.6988 241.699 24.8178 243 22.55C244.334 20.25 245 17.7337 245 15C245 12.2662 244.334 9.75 243 7.45C241.699 5.18215 239.818 3.30119 237.55 2C235.25 0.66625 232.734 0 230 0ZM233.9 15H231.4V24H228V15H225.8V11.9H228V10C228 8.6 228.234 7.6 228.7 7C229.234 6.26625 230.2 5.9 231.6 5.9H234.1V9H232.6C232.066 9 231.734 9.08375 231.6 9.25C231.466 9.41625 231.4 9.73375 231.4 10.2V11.7H234.1L233.9 15Z" fill="#7E7E7E"/>
</g>
<g clip-path="url(#clip2_3_277)">
<path d="M275.1 22C275.044 22.1202 274.958 22.2237 274.85 22.3C274.762 22.3627 274.658 22.3975 274.55 22.4C274.45 22.4 274.384 22.3663 274.35 22.3C274.311 22.2049 274.294 22.1025 274.3 22V18.3H273.4V22.4C273.39 22.6263 273.442 22.8509 273.55 23.05C273.65 23.2163 273.8 23.3 274 23.3C274.2 23.3 274.384 23.2337 274.55 23.1C274.716 22.9662 274.9 22.8 275.1 22.6V23.2H276V18.3H275.1V22ZM269.7 17.5V16.5H273V17.5H271.9V23.2H270.8V17.5H269.7ZM275.9 11.6C275.766 11.6 275.65 11.55 275.55 11.45C275.502 11.405 275.465 11.3507 275.439 11.2905C275.413 11.2303 275.4 11.1655 275.4 11.1V8.1C275.4 8.03375 275.434 7.96625 275.5 7.9C275.566 7.83375 275.684 7.8 275.85 7.8C276.016 7.8 276.15 7.83375 276.25 7.9C276.299 7.93259 276.339 7.97742 276.365 8.03005C276.391 8.08267 276.403 8.14126 276.4 8.2V11.1C276.4 11.2338 276.35 11.35 276.25 11.45C276.205 11.4976 276.151 11.5354 276.091 11.5612C276.03 11.587 275.965 11.6002 275.9 11.6ZM278.4 22C278.4 21.2 278.434 20.3663 278.5 19.5C278.5 19.3663 278.45 19.25 278.35 19.15C278.25 19.05 278.15 19 278.05 19H277.9L277.6 19.2V22.2L277.9 22.4L278.1 22.5C278.234 22.5 278.316 22.4662 278.35 22.4C278.384 22.3337 278.4 22.2 278.4 22ZM278.5 18.2C278.766 18.2 278.984 18.3 279.15 18.5C279.316 18.7 279.4 19 279.4 19.4V22.2C279.4 22.5338 279.334 22.8 279.2 23C279.145 23.093 279.063 23.1668 278.964 23.2115C278.866 23.2562 278.756 23.2697 278.65 23.25C278.445 23.2238 278.243 23.1735 278.05 23.1C277.9 23.0476 277.775 22.9405 277.7 22.8V23.2H276.7V16.5H277.7V18.7C277.834 18.5662 277.966 18.45 278.1 18.35C278.213 18.2574 278.354 18.2046 278.5 18.2ZM283.4 24.6C283.734 24.3337 283.934 23.4663 284 22C284.066 21.2663 284.134 20.5662 284.2 19.9C284.2 19.3 284.134 18.6337 284 17.9C283.866 16.4338 283.65 15.5337 283.35 15.2C283.05 14.8663 281.766 14.6338 279.5 14.5L276.2 14.4L272.8 14.5C270.534 14.6338 269.25 14.8663 268.95 15.2C268.65 15.5337 268.434 16.4338 268.3 17.9C268.233 18.5646 268.2 19.2321 268.2 19.9C268.2 20.5662 268.234 21.2663 268.3 22C268.434 23.4663 268.65 24.35 268.95 24.65C269.25 24.95 270.534 25.2 272.8 25.4L276.2 25.5L279.5 25.4C281.766 25.2 283.066 24.9662 283.4 24.7V24.6ZM271.5 5H270.3L271.7 9.5V12.3H272.9V9.3L274.3 5H273.1L272.4 7.9H272.3L271.5 5ZM274.4 8.2V11C274.4 11.4663 274.534 11.8338 274.8 12.1C275.066 12.3663 275.434 12.5 275.9 12.5C276.366 12.5 276.734 12.3663 277 12.1C277.266 11.8338 277.4 11.4663 277.4 11V8.2C277.4 7.8 277.266 7.46625 277 7.2C276.734 6.93375 276.366 6.8 275.9 6.8C275.434 6.8 275.066 6.93375 274.8 7.2C274.534 7.46625 274.4 7.8 274.4 8.2ZM278.3 7V11.5C278.29 11.7263 278.342 11.9509 278.45 12.15C278.55 12.3163 278.716 12.4 278.95 12.4C279.184 12.4 279.4 12.35 279.6 12.25C279.8 12.15 280 12 280.2 11.8V12.4H281.3V7H280.2V11C280.136 11.1306 280.031 11.2361 279.9 11.3C279.792 11.3596 279.673 11.3938 279.55 11.4C279.45 11.4 279.384 11.3837 279.35 11.35C279.316 11.3162 279.3 11.2338 279.3 11.1V6.9H278.3V7ZM276 0C278.734 0 281.25 0.66625 283.55 2C285.818 3.30119 287.699 5.18215 289 7.45C290.334 9.75 291 12.2662 291 15C291 17.7337 290.334 20.25 289 22.55C287.699 24.8178 285.818 26.6988 283.55 28C281.25 29.3337 278.734 30 276 30C273.266 30 270.75 29.3337 268.45 28C266.182 26.6988 264.301 24.8178 263 22.55C261.666 20.25 261 17.7337 261 15C261 12.2662 261.666 9.75 263 7.45C264.301 5.18215 266.182 3.30119 268.45 2C270.75 0.66625 273.266 0 276 0ZM281.7 20.1L281.6 19.6C281.6 19.4 281.566 19.25 281.5 19.15C281.467 19.101 281.423 19.0614 281.37 19.0351C281.317 19.0088 281.259 18.9967 281.2 19C281.141 18.9967 281.083 19.0088 281.03 19.0351C280.977 19.0614 280.933 19.101 280.9 19.15C280.834 19.25 280.8 19.4 280.8 19.6V20.1H281.7ZM281.3 18.2C281.7 18.2 282.016 18.3162 282.25 18.55C282.484 18.7838 282.6 19.1338 282.6 19.6V20.8H280.8V21.8C280.8 22 280.834 22.15 280.9 22.25C280.966 22.35 281.084 22.4 281.25 22.4C281.416 22.4 281.534 22.35 281.6 22.25C281.666 22.15 281.7 21.9663 281.7 21.7V21.5H282.6V21.8C282.6 22.2663 282.484 22.6337 282.25 22.9C282.016 23.1663 281.684 23.3 281.25 23.3C280.816 23.3 280.484 23.1663 280.25 22.9C280.016 22.6337 279.9 22.2663 279.9 21.8V19.6C279.9 19.2 280.034 18.8663 280.3 18.6C280.566 18.3337 280.9 18.2 281.3 18.2Z" fill="#7E7E7E"/>
</g>
<g clip-path="url(#clip3_3_277)">
<path d="M327 15.6C326.872 16.2516 326.636 16.8771 326.3 17.45C325.968 18.0152 325.526 18.5083 325 18.9C324.305 19.42 323.468 19.7164 322.6 19.75C321.743 19.7857 320.893 19.5777 320.15 19.15C319.392 18.7258 318.781 18.0804 318.4 17.3C317.8 16.1 317.666 14.8338 318 13.5H316.6L316.7 20.4C316.7 20.5338 316.75 20.6662 316.85 20.8C316.95 20.9338 317.066 21 317.2 21H327.6C327.734 21 327.866 20.9338 328 20.8C328.134 20.6662 328.2 20.5338 328.2 20.4V13.5H326.8C327 14.1663 327.066 14.8662 327 15.6ZM322.4 18.1C323.2 18.1 323.9 17.8 324.5 17.2C325.1 16.6 325.4 15.8837 325.4 15.05C325.407 14.2352 325.103 13.4484 324.55 12.85C323.984 12.2162 323.284 11.9 322.45 11.9C321.616 11.9 320.9 12.2 320.3 12.8C319.7 13.4 319.4 14.1163 319.4 14.95C319.4 15.7837 319.684 16.5163 320.25 17.15C320.816 17.7838 321.5 18.1 322.3 18.1H322.4ZM327.6 8.6H326.2C326.066 8.6 325.934 8.66625 325.8 8.8C325.666 8.93375 325.6 9.06625 325.6 9.2V10.9C325.734 11.1663 325.934 11.3 326.2 11.3H327.6C327.8 11.3 327.95 11.2338 328.05 11.1C328.143 10.9868 328.195 10.8462 328.2 10.7V9.2C328.2 9.06625 328.134 8.93375 328 8.8C327.866 8.66625 327.734 8.6 327.6 8.6ZM322 0C319.266 0 316.75 0.66625 314.45 2C312.182 3.30119 310.301 5.18215 309 7.45C307.666 9.75 307 12.2662 307 15C307 17.7337 307.666 20.25 309 22.55C310.301 24.8178 312.182 26.6988 314.45 28C316.75 29.3337 319.266 30 322 30C324.734 30 327.25 29.3337 329.55 28C331.818 26.6988 333.699 24.8178 335 22.55C336.334 20.25 337 17.7337 337 15C337 12.2662 336.334 9.75 335 7.45C333.699 5.18215 331.818 3.30119 329.55 2C327.25 0.66625 324.734 0 322 0ZM329.8 21.1L329.7 21.2V21.3C329.703 21.4581 329.673 21.615 329.613 21.7612C329.553 21.9074 329.463 22.0397 329.35 22.15C329.119 22.3823 328.822 22.5392 328.5 22.6H316.4C316.237 22.601 316.077 22.5656 315.93 22.4964C315.783 22.4272 315.653 22.3259 315.55 22.2C315.323 21.9453 315.167 21.6347 315.1 21.3L315 21.1L315.1 8.8C315.1 8.46625 315.216 8.16625 315.45 7.9C315.684 7.63375 315.966 7.46625 316.3 7.4H328.4C328.722 7.4608 329.019 7.61767 329.25 7.85C329.482 8.08144 329.639 8.37775 329.7 8.7L329.8 21.1Z" fill="#7E7E7E"/>
</g>
<defs>
<clipPath id="clip0_3_277">
<rect width="30" height="30" fill="white" transform="translate(169)"/>
</clipPath>
<clipPath id="clip1_3_277">
<rect width="30" height="30" fill="white" transform="translate(215)"/>
</clipPath>
<clipPath id="clip2_3_277">
<rect width="30" height="30" fill="white" transform="translate(261)"/>
</clipPath>
<clipPath id="clip3_3_277">
<rect width="30" height="30" fill="white" transform="translate(307)"/>
</clipPath>
</defs>
</svg>
